<?xml version="1.0" standalone="no"?>
<!DOCTYPE svg PUBLIC "-//W3C//DTD SVG 20010904//EN"
 "http://www.w3.org/TR/2001/REC-SVG-20010904/DTD/svg10.dtd">
<svg version="1.0" xmlns="http://www.w3.org/2000/svg"
 width="400.000000pt" height="400.000000pt" viewBox="0 0 400.000000 400.000000"
 preserveAspectRatio="xMidYMid meet">
<metadata>
Created by potrace 1.11, written by Peter Selinger 2001-2013
</metadata>
<g transform="translate(0.000000,400.000000) scale(0.100000,-0.100000)"
fill="#000000" stroke="none">
<path d="M0 2000 l0 -2000 2000 0 2000 0 0 2000 0 2000 -2000 0 -2000 0 0
-2000z m3290 1219 c224 -57 416 -214 519 -422 66 -134 84 -211 84 -362 0 -230
-70 -400 -233 -566 -97 -98 -184 -154 -316 -202 -87 -31 -92 -32 -259 -31
-166 0 -172 1 -257 32 -47 18 -89 32 -92 32 -3 0 -6 -162 -6 -360 l0 -360
-227 2 -228 3 -1 433 c-1 238 -5 436 -8 439 -3 4 -6 -4 -6 -17 0 -35 -58 -197
-98 -274 -144 -277 -407 -484 -722 -568 -108 -29 -344 -36 -464 -14 -425 80
-770 400 -875 811 -73 287 -38 560 104 820 208 381 649 612 1079 566 441 -48
805 -340 945 -757 17 -51 31 -102 31 -115 0 -12 2 -20 5 -18 2 3 7 63 10 133
7 169 26 248 93 381 118 236 347 398 615 435 83 11 215 2 307 -21z"/>
<path d="M2959 2540 c-136 -41 -177 -222 -74 -325 121 -121 320 -46 333 126
10 139 -122 241 -259 199z"/>
<path d="M1270 2348 c-143 -25 -230 -170 -190 -318 15 -58 97 -140 156 -158
93 -27 189 -5 253 59 54 54 74 111 69 193 -9 148 -139 250 -288 224z"/>
</g>
</svg>
